<svg width="233" height="86" viewBox="0 0 233 86" fill="none" xmlns="http://www.w3.org/2000/svg">
<path d="M232.001 8.42383H132.004V65.1363H232.001V8.42383Z" fill="white"/>
<path d="M68.7539 50.8828C69.6511 50.8828 70.239 50.5424 70.5174 49.8617C70.6721 49.4582 70.7495 48.6536 70.7495 47.4481V20.6663C70.7495 19.5523 71.0743 18.6859 71.7241 18.067C72.3738 17.4481 73.2091 17.1387 74.2301 17.1387H81.1914V50.8828H82.9085V57.7523H79.4743V54.3176H72.1881V57.7523H68.7539V50.8828ZM74.1837 47.3552C74.2004 48.5354 74.1228 49.715 73.9517 50.8828H77.6643V20.6663H74.1837V47.3552Z" fill="white"/>
<path d="M96.0433 17.1387C96.8651 17.1387 97.6429 17.5255 98.3767 18.2991C99.1106 19.0727 99.4775 19.8617 99.4775 20.6663V50.8828C99.4775 51.6861 99.1106 52.4597 98.3767 53.2036C97.6429 53.9475 96.8651 54.3188 96.0433 54.3176H92.5163C91.7106 54.3176 90.9371 53.9463 90.1958 53.2036C89.4545 52.461 89.0833 51.6874 89.082 50.8828V20.6663C89.082 19.8617 89.4533 19.0727 90.1958 18.2991C90.9384 17.5255 91.7118 17.1387 92.5163 17.1387H96.0433ZM92.5163 50.8828H96.0433V20.6663H92.5163V50.8828Z" fill="white"/>
<path d="M123.237 17.1387V54.3176H119.803V29.2996L116.276 54.3176H112.702L109.268 29.5316V54.3176H105.834V17.1387H110.985L114.512 45.7771L117.993 17.1387H123.237Z" fill="white"/>
<path d="M150.828 32.92C153.132 32.92 154.284 34.0649 154.284 36.3547V50.79C154.284 51.5933 153.913 52.3824 153.17 53.1572C152.428 53.932 151.642 54.3188 150.813 54.3176H143.889V17.1387H153.124V20.6663H147.323V32.92H150.828ZM147.323 50.79H150.85V36.3547H147.323V50.79Z" fill="#D8571E"/>
<path d="M167.325 17.1387C168.149 17.1387 168.927 17.5255 169.66 18.2991C170.392 19.0727 170.759 19.8617 170.759 20.6663V50.8828C170.759 51.6861 170.392 52.4597 169.66 53.2036C168.927 53.9475 168.149 54.3188 167.325 54.3176H163.798C162.992 54.3176 162.218 53.9463 161.477 53.2036C160.736 52.461 160.365 51.6874 160.363 50.8828V20.6663C160.363 19.8617 160.735 19.0727 161.477 18.2991C162.22 17.5255 162.993 17.1387 163.798 17.1387H167.325ZM163.798 50.8828H167.325V20.6663H163.798V50.8828Z" fill="#D8571E"/>
<path d="M184.054 32.92C186.36 32.92 187.513 34.0649 187.513 36.3547V50.79C187.513 51.5933 187.141 52.3824 186.399 53.1572C185.656 53.932 184.871 54.3188 184.043 54.3176H177.117V17.1387H186.352V20.6663H180.551V32.92H184.054ZM180.551 50.79H184.078V36.3547H180.551V50.79Z" fill="#D8571E"/>
<path d="M197.024 37.2831V54.3176H193.59V17.1387H200.551C201.375 17.1387 202.154 17.5255 202.886 18.2991C203.619 19.0727 203.985 19.8617 203.985 20.6663V33.8483C203.985 36.1369 202.841 37.2818 200.551 37.2831H197.024ZM197.024 33.8483H200.551V20.6663H197.024V33.8483Z" fill="#D8571E"/>
<path d="M216.702 17.1387C217.526 17.1387 218.304 17.5255 219.037 18.2991C219.769 19.0727 220.136 19.8617 220.136 20.6663V54.3176H216.702V37.2831H213.174V54.3176H209.74V20.6663C209.74 19.8617 210.112 19.0727 210.854 18.2991C211.597 17.5255 212.37 17.1387 213.174 17.1387H216.702ZM213.174 33.8483H216.702V20.6663H213.174V33.8483Z" fill="#D8571E"/>
<path d="M32.6406 53.9033L47.9721 53.9961L52.3141 20.4098L32.6406 10.1816V53.9033Z" fill="white"/>
<path d="M29.4723 53.9961H14.1408L9.79883 20.4098L29.4723 10.1816V53.9961Z" fill="white"/>
<path d="M31.0414 0L1.34551 14.4947L1.3418 20.4117L31.0488 5.90964L31.0414 0Z" fill="white"/>
<path d="M31.043 0L60.7389 14.4891L60.685 20.3765L31.0504 5.90964L31.043 0Z" fill="white"/>
<path d="M1.33657 81.8777H0V74.4512H5.1235V81.8777H3.78694V75.4166H1.33657V81.8777Z" fill="white"/>
<path d="M18.1916 78.6136H14.3304C14.322 79.0204 14.3619 79.4268 14.4492 79.8242C14.5111 80.107 14.6382 80.3715 14.8205 80.5965C14.9889 80.7937 15.2106 80.9381 15.4591 81.0124C15.7701 81.1031 16.0931 81.1456 16.417 81.1386H17.902V81.7328C17.6282 81.8239 17.3476 81.8934 17.063 81.9407C16.7519 81.9982 16.4363 82.028 16.1199 82.0298C15.6381 82.0401 15.1574 81.9775 14.6943 81.8442C14.3158 81.7322 13.978 81.5129 13.7215 81.2129C13.4427 80.8676 13.2517 80.4599 13.1646 80.0247C13.0387 79.4128 12.9814 78.7889 12.9939 78.1643C12.9824 77.5414 13.0372 76.9191 13.1572 76.3077C13.2356 75.8817 13.4026 75.4769 13.6473 75.1195C13.8513 74.8331 14.1355 74.6134 14.4641 74.4882C15.1962 74.2409 15.9893 74.2409 16.7214 74.4882C17.0497 74.6139 17.3337 74.8335 17.5382 75.1195C17.7813 75.4777 17.9481 75.8822 18.0283 76.3077C18.1483 76.9191 18.203 77.5414 18.1916 78.1643V78.6136ZM16.855 77.7225C16.8621 77.3017 16.8273 76.8813 16.7511 76.4674C16.7003 76.1901 16.6076 75.9222 16.4764 75.6727C16.3839 75.4976 16.2452 75.3512 16.0754 75.2494C15.9277 75.1673 15.7617 75.1239 15.5927 75.1232C15.4237 75.1234 15.2576 75.1669 15.1101 75.2494C14.9394 75.3501 14.8004 75.4968 14.7091 75.6727C14.5771 75.9219 14.4845 76.1899 14.4344 76.4674C14.3573 76.8811 14.3224 77.3017 14.3304 77.7225H16.855Z" fill="white"/>
<path d="M27.3248 74.8992C27.523 74.7044 27.7612 74.5549 28.0228 74.461C28.2981 74.3573 28.59 74.3045 28.8841 74.3051C29.2394 74.2992 29.5924 74.3623 29.9237 74.4907C30.2375 74.6207 30.5061 74.8402 30.6959 75.122C30.9301 75.4834 31.0915 75.887 31.1712 76.3102C31.389 77.5384 31.389 78.7953 31.1712 80.0235C31.0915 80.4467 30.9301 80.8503 30.6959 81.2117C30.5061 81.4934 30.2375 81.713 29.9237 81.843C29.5924 81.9714 29.2394 82.0345 28.8841 82.0286C28.6157 82.0322 28.3481 81.9972 28.0896 81.9246C27.8525 81.8547 27.6215 81.7653 27.3991 81.6573V84.847H26.0625V74.4499H27.1763L27.2506 74.8955L27.3248 74.8992ZM27.3991 80.8404C27.5398 80.9351 27.6954 81.0054 27.8594 81.0483C28.0471 81.1063 28.2422 81.1364 28.4386 81.1374C28.6603 81.1403 28.8803 81.0973 29.0846 81.0112C29.2926 80.9135 29.4643 80.7523 29.5747 80.5507C29.73 80.2663 29.8355 79.9573 29.8866 79.6373C29.9688 79.1516 30.0061 78.6594 29.9979 78.1668C30.0064 77.6768 29.9691 77.187 29.8866 76.7038C29.8347 76.3863 29.7293 76.0799 29.5747 75.7978C29.4628 75.5955 29.2918 75.4323 29.0846 75.3299C28.8816 75.2387 28.6611 75.1931 28.4386 75.1962C28.2422 75.1973 28.0471 75.2273 27.8594 75.2854C27.6954 75.3283 27.5398 75.3986 27.3991 75.4933V80.8404Z" fill="white"/>
<path d="M44.1052 78.6136H40.244C40.2356 79.0204 40.2755 79.4268 40.3628 79.8242C40.4247 80.107 40.5518 80.3715 40.7341 80.5965C40.9025 80.7937 41.1243 80.9381 41.3727 81.0124C41.6815 81.1011 42.0019 81.1424 42.3231 81.1349H43.8082V81.7291C43.5343 81.82 43.2538 81.8895 42.9691 81.937C42.658 81.9945 42.3425 82.0243 42.0261 82.0261C41.5443 82.0364 41.0636 81.9738 40.6005 81.8405C40.222 81.7285 39.8842 81.5092 39.6277 81.2092C39.3489 80.8639 39.1579 80.4562 39.0708 80.021C38.9451 79.4104 38.8879 78.7876 38.9 78.1643C38.8886 77.5414 38.9434 76.9191 39.0634 76.3077C39.1418 75.8817 39.3088 75.4769 39.5535 75.1195C39.7575 74.8331 40.0417 74.6134 40.3703 74.4882C41.1024 74.2409 41.8955 74.2409 42.6276 74.4882C42.9559 74.6139 43.2399 74.8335 43.4444 75.1195C43.6875 75.4777 43.8543 75.8822 43.9344 76.3077C44.0535 76.9192 44.1083 77.5415 44.0978 78.1643L44.1052 78.6136ZM42.7687 77.7225C42.7757 77.3017 42.7409 76.8813 42.6647 76.4674C42.6139 76.1901 42.5212 75.9222 42.39 75.6727C42.2975 75.4976 42.1589 75.3512 41.989 75.2494C41.8413 75.1673 41.6753 75.1239 41.5063 75.1232C41.3373 75.1234 41.1712 75.1669 41.0237 75.2494C40.853 75.3501 40.714 75.4968 40.6227 75.6727C40.4899 75.9215 40.3972 76.1897 40.348 76.4674C40.2709 76.8811 40.236 77.3017 40.244 77.7225H42.7687Z" fill="white"/>
<path d="M55.719 79.1336L57.4714 74.4512H59.0307L59.5505 81.8777H58.2882L57.9169 76.6049H57.8427L56.2833 80.7637H55.0953L53.536 76.6049H53.4617L53.0904 81.8777H51.8281L52.3479 74.4512H53.9072L55.6596 79.1299L55.719 79.1336Z" fill="white"/>
<path d="M72.4728 78.6119H68.6116C68.6032 79.0187 68.643 79.425 68.7304 79.8224C68.7923 80.1053 68.9194 80.3698 69.1017 80.5948C69.2701 80.7919 69.4918 80.9363 69.7403 81.0106C70.0513 81.1013 70.3743 81.1439 70.6981 81.1369H72.1832V81.731C71.9093 81.8219 71.6288 81.8914 71.3441 81.939C71.033 81.9964 70.7175 82.0262 70.4011 82.0281C69.9193 82.0383 69.4386 81.9757 68.9755 81.8424C68.597 81.7304 68.2592 81.5112 68.0027 81.2112C67.7239 80.8658 67.5329 80.4581 67.4458 80.0229C67.3201 79.4123 67.2629 78.7896 67.275 78.1663C67.2636 77.5434 67.3184 76.921 67.4384 76.3097C67.5168 75.8837 67.6838 75.4788 67.9285 75.1214C68.1325 74.835 68.4167 74.6154 68.7453 74.4902C69.4774 74.2429 70.2705 74.2429 71.0026 74.4902C71.3309 74.6159 71.6149 74.8354 71.8194 75.1214C72.0625 75.4797 72.2293 75.8842 72.3094 76.3097C72.4285 76.9211 72.4833 77.5434 72.4728 78.1663V78.6119ZM71.1362 77.7207C71.1433 77.2999 71.1085 76.8795 71.0323 76.4656C70.9814 76.1884 70.8888 75.9204 70.7575 75.671C70.6651 75.4959 70.5264 75.3494 70.3566 75.2477C70.2089 75.1656 70.0429 75.1222 69.8739 75.1214C69.7049 75.1217 69.5388 75.1651 69.3913 75.2477C69.2206 75.3484 69.0816 75.4951 68.9903 75.671C68.8575 75.9198 68.7648 76.1879 68.7156 76.4656C68.6385 76.8794 68.6036 77.2999 68.6116 77.7207H71.1362Z" fill="white"/>
<path d="M81.6803 81.8777H80.3438V74.4512H81.6803V77.6446H84.1307V74.4512H85.4673V81.8777H84.1307V78.61H81.6803V81.8777Z" fill="white"/>
<path d="M96.4564 77.2027C96.764 77.1997 97.0707 77.2346 97.3697 77.3067C97.63 77.3696 97.8701 77.4973 98.0677 77.678C98.278 77.8837 98.4332 78.1391 98.5188 78.4206C98.6404 78.8199 98.6962 79.2363 98.684 79.6534C98.6962 80.0564 98.6385 80.4585 98.5132 80.8417C98.4145 81.1258 98.2399 81.3775 98.0083 81.5695C97.7652 81.7588 97.4798 81.8862 97.1767 81.9408C96.792 82.01 96.4017 82.0423 96.0109 82.0373C95.5966 82.0391 95.1825 82.0168 94.7708 81.9705C94.3864 81.9258 94.0063 81.8488 93.6348 81.7403V74.4512H94.9713V77.3475C95.1978 77.3085 95.428 77.2732 95.6619 77.2435C95.9256 77.2133 96.191 77.1996 96.4564 77.2027ZM96.0109 81.135C96.3625 81.1554 96.7099 81.0501 96.991 80.838C97.2268 80.6393 97.3475 80.2438 97.3475 79.6497C97.3475 79.0556 97.2268 78.6601 96.991 78.4615C96.7099 78.2494 96.3625 78.1441 96.0109 78.1644H94.9713V81.135H96.0109ZM101.06 74.4512V81.8777H99.7236V74.4512H101.06Z" fill="white"/>
<path d="M122.203 77.9784C122.468 78.0367 122.712 78.1649 122.911 78.3497C123.113 78.5354 123.282 78.8751 123.406 79.3597L123.778 80.7707C123.818 80.9198 123.908 81.0507 124.032 81.1421C124.223 81.2572 124.446 81.3092 124.669 81.2906V81.8773C124.592 81.9091 124.512 81.934 124.431 81.9515C124.243 82.0041 124.049 82.0291 123.854 82.0258C123.504 82.0467 123.159 81.9339 122.888 81.7102C122.626 81.4523 122.445 81.1231 122.369 80.7633L121.997 79.3523C121.828 78.7582 121.501 78.4611 121.017 78.4611H120.512V81.8773H119.176V74.4508H120.512V77.4956H121.017C121.184 77.4934 121.343 77.4268 121.461 77.31C121.641 77.1098 121.773 76.871 121.847 76.6119L122.218 75.5722C122.333 75.2164 122.523 74.8895 122.775 74.6142C123.033 74.3958 123.366 74.2866 123.703 74.3097C123.798 74.3101 123.893 74.3175 123.987 74.332C124.077 74.3447 124.165 74.362 124.253 74.384L124.52 74.4582V75.0523C124.299 75.0331 124.078 75.0852 123.889 75.2009C123.768 75.2964 123.678 75.4256 123.631 75.5722L123.26 76.6119C123.156 76.9514 122.995 77.2704 122.783 77.5551C122.634 77.7369 122.431 77.8668 122.203 77.9264V77.9784Z" fill="white"/>
<path d="M147.035 74.4512V81.8777H145.699V75.4166H143.768L143.53 79.5012C143.482 80.3924 143.297 81.036 142.974 81.4321C142.841 81.6139 142.668 81.7623 142.468 81.8654C142.269 81.9686 142.047 82.0236 141.823 82.0262C141.629 82.0311 141.437 82.006 141.251 81.9519C141.171 81.923 141.089 81.8982 141.006 81.8777V81.2835C141.16 81.2797 141.312 81.2401 141.448 81.168C141.585 81.0958 141.703 80.993 141.793 80.8677C142.021 80.591 142.155 80.1343 142.194 79.5012L142.491 74.4512H147.035Z" fill="white"/>
<path d="M157.654 82.0301C157.437 82.0408 157.221 82.0045 157.02 81.9237C156.819 81.843 156.638 81.7196 156.49 81.5622C156.172 81.1852 155.957 80.7324 155.866 80.2478L154.529 74.4551H155.866L157.202 80.2478C157.242 80.4757 157.334 80.6916 157.47 80.879C157.512 80.9342 157.566 80.9795 157.627 81.0115C157.689 81.0436 157.757 81.0618 157.826 81.0647L159.059 74.4551H160.395L158.985 82.0301C158.788 83.0698 158.496 83.8248 158.108 84.2952C157.919 84.5269 157.678 84.7113 157.404 84.8338C157.131 84.9562 156.833 85.0134 156.534 85.0007C156.299 84.9997 156.064 84.9697 155.836 84.9116C155.618 84.8587 155.405 84.7892 155.198 84.7037V84.1058H156.237C156.404 84.1094 156.57 84.0817 156.727 84.0241C156.878 83.9575 157.007 83.8493 157.098 83.7122C157.233 83.5176 157.333 83.3017 157.395 83.0735C157.502 82.7311 157.588 82.3827 157.654 82.0301Z" fill="white"/>
<path d="M167.751 74.4512H169.088V77.0504C169.088 77.535 169.225 77.8674 169.496 78.0456C169.822 78.2376 170.196 78.3306 170.573 78.3129H171.538V74.4512H172.875V81.8777H171.538V79.0556C171.293 79.1033 171.045 79.138 170.796 79.1596C170.489 79.1893 170.168 79.2041 169.83 79.2041C169.553 79.2067 169.276 79.1743 169.006 79.1076C168.753 79.048 168.519 78.9246 168.327 78.7491C168.134 78.5736 167.99 78.3519 167.907 78.105C167.794 77.7654 167.741 77.4084 167.751 77.0504V74.4512Z" fill="white"/>
<path d="M181.043 81.8777V74.4512H182.38V80.9122H184.384V74.4512H185.721V80.9122H187.726V74.4512H189.062V81.8777H181.043Z" fill="white"/>
<path d="M202.133 78.6119H198.272C198.264 79.0186 198.304 79.4249 198.39 79.8224C198.453 80.105 198.58 80.3693 198.762 80.5948C198.93 80.7915 199.152 80.9359 199.4 81.0106C199.711 81.101 200.034 81.1436 200.358 81.1369H201.843V81.731C201.569 81.8221 201.289 81.8917 201.004 81.939C200.693 81.9964 200.377 82.0262 200.061 82.0281C199.579 82.0382 199.099 81.9756 198.635 81.8424C198.257 81.7297 197.92 81.5106 197.663 81.2112C197.385 80.8654 197.194 80.4579 197.106 80.0229C196.981 79.4122 196.924 78.7896 196.935 78.1663C196.924 77.5434 196.979 76.9211 197.098 76.3097C197.178 75.8842 197.345 75.4797 197.588 75.1214C197.793 74.8354 198.077 74.6159 198.405 74.4902C199.137 74.2429 199.93 74.2429 200.663 74.4902C200.991 74.6154 201.275 74.835 201.479 75.1214C201.724 75.4776 201.892 75.8811 201.971 76.306C202.091 76.9173 202.146 77.5397 202.135 78.1626L202.133 78.6119ZM200.796 77.7207C200.804 77.2999 200.769 76.8794 200.692 76.4656C200.643 76.1879 200.55 75.9198 200.417 75.671C200.326 75.4951 200.187 75.3484 200.017 75.2477C199.869 75.1649 199.703 75.1214 199.534 75.1214C199.365 75.1214 199.199 75.1649 199.051 75.2477C198.881 75.3489 198.742 75.4955 198.65 75.671C198.518 75.9201 198.426 76.1882 198.376 76.4656C198.299 76.8795 198.264 77.2999 198.272 77.7207H200.796Z" fill="white"/>
<path d="M213.744 79.1318L215.497 74.4531H217.056L217.576 81.8796H216.314L215.942 76.6068H215.868L214.309 80.7656H213.121L211.561 76.6068H211.487L211.116 81.8796H209.854L210.373 74.4531H211.933L213.685 79.1318H213.744Z" fill="white"/>
<path d="M228.046 82.0282C227.831 82.038 227.616 82.0013 227.416 81.9206C227.216 81.8398 227.036 81.7169 226.888 81.5603C226.569 81.1841 226.354 80.7309 226.264 80.2458L224.928 74.4531H226.264L227.601 80.2458C227.64 80.4742 227.731 80.6904 227.868 80.877C227.91 80.9323 227.964 80.9775 228.026 81.0096C228.087 81.0417 228.155 81.0598 228.225 81.0627L229.457 74.4531H230.794L229.383 82.0282C229.184 83.0679 228.892 83.8229 228.507 84.2932C228.317 84.5249 228.076 84.7092 227.803 84.8316C227.53 84.9541 227.232 85.0113 226.933 84.9988C226.697 84.9978 226.463 84.9679 226.235 84.9096C226.017 84.8571 225.803 84.7876 225.596 84.7017V84.1039H226.636C226.803 84.1071 226.969 84.0794 227.126 84.0222C227.276 83.9555 227.405 83.8474 227.497 83.7103C227.631 83.5152 227.731 83.2994 227.794 83.0716C227.897 82.7286 227.981 82.3803 228.046 82.0282Z" fill="white"/>
</svg>
