<svg width="18" height="18" viewBox="0 0 18 18" fill="none" xmlns="http://www.w3.org/2000/svg">
<path d="M16.9306 17.9999C16.6553 17.9999 16.3799 17.8893 16.1779 17.6864L0.316747 1.82386C-0.105582 1.41808 -0.105582 0.735653 0.316747 0.329867C0.738945 -0.0943306 1.39983 -0.0943306 1.82216 0.329867L17.6834 16.174C18.1055 16.5982 18.1055 17.2622 17.6834 17.6865C17.4813 17.8894 17.206 18 16.9306 18V17.9999Z" fill="white"/>
<path d="M1.07033 17.9999C0.795017 17.9999 0.519564 17.8893 0.317627 17.6864C-0.104571 17.2622 -0.0862458 16.5981 0.317627 16.1738L16.1788 0.311282C16.601 -0.112916 17.2619 -0.0945037 17.6842 0.311282C18.1064 0.73548 18.0881 1.39949 17.6842 1.82382L1.82304 17.6864C1.60278 17.8893 1.34577 17.9999 1.07033 17.9999Z" fill="white"/>
</svg>
