<svg width="16" height="16" viewBox="0 0 16 16" fill="none" xmlns="http://www.w3.org/2000/svg">
<path d="M3.8 7.06667C4.88889 9.24444 6.75556 11.0333 8.93333 12.2L10.6444 10.4889C10.8778 10.2556 11.1889 10.1778 11.4222 10.3333C12.2778 10.6444 13.2111 10.8 14.2222 10.8C14.6889 10.8 15 11.1111 15 11.5778V14.2222C15 14.6889 14.6889 15 14.2222 15C6.91111 15 1 9.08889 1 1.77778C1 1.31111 1.31111 1 1.77778 1H4.5C4.96667 1 5.27778 1.31111 5.27778 1.77778C5.27778 2.71111 5.43333 3.64444 5.74444 4.57778C5.82222 4.81111 5.74444 5.12222 5.58889 5.35556L3.8 7.06667V7.06667Z" stroke="white" stroke-width="0.5"/>
</svg>
