<svg width="11" height="7" viewBox="0 0 11 7" fill="none" xmlns="http://www.w3.org/2000/svg">
<path fill-rule="evenodd" clip-rule="evenodd" d="M3.60728 0.729924C3.65338 0.602438 3.74156 0.523663 3.84943 0.468194C4.05667 0.36215 4.28024 0.329754 4.50672 0.334415C4.82855 0.341174 5.15014 0.363082 5.47174 0.377299C5.61631 0.383592 5.76022 0.390118 5.89696 0.447451C6.10151 0.532985 6.2096 0.694964 6.21475 0.918472C6.21878 1.10049 6.19371 1.28298 6.1879 1.4657C6.17492 1.85492 6.1588 2.24367 6.1597 2.63242C6.16014 2.75524 6.20983 2.87877 6.24094 3.00019C6.24989 3.03469 6.27204 3.06568 6.29219 3.09575C6.36917 3.21182 6.39603 3.21088 6.50636 3.13817C6.71136 3.00299 6.86265 2.81817 7.0014 2.61331C7.18917 2.33643 7.35657 2.04836 7.49577 1.74305C7.6343 1.43844 7.77395 1.13406 7.9042 0.825014C7.96888 0.670726 8.0687 0.605701 8.22894 0.6064C8.8323 0.610595 9.4361 0.610129 10.0395 0.607333C10.2333 0.6064 10.3718 0.778867 10.3277 0.976971C10.2816 1.1858 10.1912 1.37295 10.0847 1.5524C9.785 2.05862 9.45266 2.54013 9.0731 2.98574C8.93972 3.14236 8.81976 3.30947 8.75799 3.51293C8.69086 3.73458 8.7336 3.92895 8.89205 4.09373C9.17292 4.38506 9.46095 4.66916 9.73443 4.96818C9.89601 5.14577 10.039 5.34201 10.1809 5.53709C10.2722 5.66178 10.3304 5.80558 10.3138 5.96942C10.2959 6.15191 10.2066 6.24653 10.031 6.25609C9.69101 6.27473 9.35017 6.28849 9.00999 6.30433C8.81171 6.31389 8.61387 6.32484 8.41581 6.33347C8.25758 6.34022 8.11659 6.28009 7.98231 6.20015C7.76881 6.07267 7.59044 5.89927 7.41498 5.72261C7.23326 5.54012 7.06474 5.34621 6.92912 5.12224C6.84318 4.9803 6.60349 4.90292 6.45265 4.96166C6.33583 5.0071 6.2801 5.10592 6.26824 5.22921C6.24854 5.43221 6.2378 5.63661 6.21945 5.8396C6.19707 6.08991 6.04646 6.24513 5.80699 6.27893C5.33545 6.34442 4.86749 6.31995 4.40221 6.22532C4.06092 6.15517 3.76595 5.9841 3.48486 5.77644C3.10015 5.49327 2.77318 5.14694 2.46703 4.77963C2.30835 4.58852 2.16915 4.37853 2.03241 4.16877C1.59668 3.50198 1.18444 2.81957 0.823452 2.105C0.650456 1.76263 0.477236 1.42002 0.385927 1.0413C0.365337 0.956228 0.354595 0.868364 0.338034 0.781897C0.329977 0.739013 0.345195 0.707317 0.382793 0.694964C0.480817 0.663501 0.578841 0.616189 0.678431 0.612227C0.998462 0.59801 1.31849 0.599875 1.63853 0.597777C1.77683 0.597311 1.91536 0.611994 2.05345 0.60407C2.23898 0.594048 2.36296 0.683311 2.44308 0.844824C2.52298 1.0068 2.59191 1.17531 2.668 1.33962C2.94058 1.92997 3.23577 2.50633 3.61936 3.02793C3.67621 3.10484 3.76058 3.1659 3.84294 3.21508C3.94096 3.27381 4.02712 3.24235 4.08733 3.14236C4.15782 3.02303 4.19117 2.88972 4.19341 2.74988C4.19922 2.35624 4.21041 1.96236 4.20639 1.56919C4.20169 1.16319 4.0081 0.892835 3.64152 0.746704C3.63212 0.742276 3.62272 0.737149 3.60728 0.729924Z" fill="white"/>
</svg>
