<svg width="10" height="7" viewBox="0 0 10 7" fill="none" xmlns="http://www.w3.org/2000/svg">
<path d="M8.30764 0H1.69225H1.69236C1.24346 0 0.813022 0.18023 0.495687 0.501194C0.178242 0.822055 0 1.25728 0 1.71117V5.28894V5.28883C0 5.74272 0.17825 6.17794 0.495687 6.49881C0.813022 6.81978 1.24346 7 1.69236 7H8.30774H8.30764C8.75654 7 9.18698 6.81977 9.50431 6.49881C9.82176 6.17794 10 5.74272 10 5.28883V1.71106V1.71117C10 1.25728 9.82175 0.822055 9.50431 0.501194C9.18698 0.180222 8.75654 0 8.30764 0ZM6.95849 3.56833L3.95849 5.12389C3.93467 5.13626 3.90623 5.13539 3.88337 5.12139C3.8604 5.1075 3.84634 5.08244 3.84613 5.05542V1.94431C3.84634 1.91729 3.8604 1.89223 3.88337 1.87834C3.90623 1.86434 3.93467 1.86347 3.95849 1.87584L6.95849 3.4314C6.98414 3.44474 7.00034 3.47144 7.00034 3.50062C7.00034 3.52981 6.98414 3.5565 6.95849 3.56985V3.56833Z" fill="white"/>
</svg>
