<svg width="85" height="37" viewBox="0 0 85 37" fill="none" xmlns="http://www.w3.org/2000/svg">
<path d="M39.5591 36.1823H34.3984V11.4326H39.5591V36.1823Z" fill="#1C1F23"/>
<path d="M45.1379 23.8663C45.0894 22.1517 45.3885 20.4451 46.0173 18.8489C46.6461 17.2528 47.5915 15.8002 48.7967 14.5785C50.0019 13.3567 51.4419 12.391 53.0303 11.7395C54.6187 11.088 56.3226 10.7642 58.0395 10.7874C61.107 10.7166 64.0841 11.8275 66.3539 13.89V11.5034H71.4667V36.1576H66.2583V33.6039C65.1809 34.6893 63.8902 35.5401 62.4675 36.1029C61.0448 36.6656 59.5209 36.928 57.9917 36.8736C56.285 36.89 54.5924 36.5635 53.0145 35.9136C51.4365 35.2636 50.0055 34.3034 48.8064 33.09C47.6074 31.8766 46.6647 30.4348 46.0345 28.8503C45.4043 27.2658 45.0994 25.5709 45.1379 23.8663ZM66.6406 23.8663C66.7189 22.757 66.5619 21.6437 66.1798 20.5992C65.7978 19.5547 65.1992 18.6025 64.4234 17.805C63.6476 17.0075 62.712 16.3826 61.6778 15.9712C60.6435 15.5597 59.534 15.3711 58.4218 15.4175C57.3292 15.4265 56.2494 15.6536 55.246 16.0856C54.2425 16.5176 53.3357 17.1456 52.5789 17.9328C51.822 18.72 51.2303 19.6505 50.8387 20.6695C50.4471 21.6884 50.2635 22.7754 50.2985 23.8663C50.2635 24.9607 50.4467 26.0511 50.8375 27.074C51.2283 28.097 51.8188 29.0322 52.5748 29.8251C53.3307 30.6179 54.2369 31.2527 55.2407 31.6925C56.2445 32.1323 57.3258 32.3682 58.4218 32.3867C59.5385 32.4265 60.6511 32.2309 61.6871 31.8126C62.7232 31.3942 63.6593 30.7626 64.4347 29.9588C65.2101 29.1549 65.8073 28.197 66.1873 27.1472C66.5674 26.0975 66.7218 24.9796 66.6406 23.8663Z" fill="#1C1F23"/>
<path d="M34.0469 3.07915C34.0469 2.30058 34.3565 1.5539 34.9076 1.00337C35.4587 0.45284 36.2062 0.143555 36.9856 0.143555C37.765 0.143555 38.5124 0.45284 39.0635 1.00337C39.6147 1.5539 39.9243 2.30058 39.9243 3.07915C39.9243 3.85772 39.6147 4.6044 39.0635 5.15493C38.5124 5.70546 37.765 6.01475 36.9856 6.01475C36.2062 6.01475 35.4587 5.70546 34.9076 5.15493C34.3565 4.6044 34.0469 3.85772 34.0469 3.07915Z" fill="#FF3D00"/>
<path d="M21.0009 5.27531V13.8434C19.4124 12.3652 17.429 11.3787 15.2908 11.0033L10.5124 15.7766C11.3433 15.491 12.2141 15.3379 13.0927 15.3232C14.2117 15.2788 15.3273 15.4723 16.3658 15.891C17.4043 16.3096 18.3419 16.9438 19.1166 17.7515C19.8913 18.5593 20.4855 19.5222 20.8598 20.5765C21.234 21.6308 21.3799 22.7526 21.2877 23.8674C21.3689 24.9807 21.2145 26.0987 20.8344 27.1484C20.4543 28.1981 19.8572 29.1561 19.0818 29.9599C18.3064 30.7637 17.3702 31.3954 16.3342 31.8137C15.2982 32.232 14.1856 32.4276 13.0689 32.3878C11.7162 32.3628 10.3893 32.014 9.19954 31.3707C8.00976 30.7275 6.99181 29.8085 6.23114 28.6909C5.47047 27.5733 4.98928 26.2898 4.82796 24.948C4.66663 23.6062 4.82988 22.2453 5.30399 20.9796L0 26.2541C0.477632 29.2548 2.02449 31.982 4.3557 33.9336C6.68691 35.8852 9.64548 36.9297 12.6866 36.8747C14.2158 36.9291 15.7397 36.6667 17.1624 36.104C18.5851 35.5413 19.8758 34.6904 20.9532 33.605V36.1587H26.2811V0.120117L21.0009 5.27531Z" fill="#1C1F23"/>
<path d="M79.1562 5.15519V36.1341H84.3169V0L79.1562 5.15519Z" fill="#1C1F23"/>
</svg>
