<svg width="22" height="24" viewBox="0 0 22 24" fill="none" xmlns="http://www.w3.org/2000/svg">
<g clip-path="url(#clip0_1615_254)">
<path fill-rule="evenodd" clip-rule="evenodd" d="M11.5992 1.00239C14.0695 1.02058 16.6067 1.22034 18.6267 2.72367C19.6644 3.49573 20.2678 4.72539 20.5782 6.00315C21.0317 7.8714 21.0547 9.77807 20.9453 11.6017C20.8464 13.2497 20.4755 14.9235 19.5473 16.2957C19.015 17.083 18.1003 17.5808 17.2414 17.9014C14.8493 18.7943 12.2177 18.9327 9.64295 18.8873L9.54794 18.8855L5.8998 22.9664C5.81364 23.0412 5.65785 22.9843 5.64989 22.8634L5.63897 18.3443C5.58881 18.3282 5.53894 18.3118 5.48908 18.295C4.10376 17.8251 2.83176 17.0167 2.08024 15.7489C1.1924 14.2517 1.02746 12.4506 1.00503 10.7499C0.981428 8.97844 1.0189 7.17356 1.60814 5.5168C2.18233 3.902 3.44755 2.53946 5.18457 1.81844C7.20899 0.978042 9.47093 0.992122 11.5992 1.00239Z" stroke="#1C1F23" stroke-width="1.5"/>
<path fill-rule="evenodd" clip-rule="evenodd" d="M10.5621 3.15879C11.6958 3.22479 12.8129 3.41839 13.8005 3.90239C15.2399 4.60756 16.4247 5.84954 17.1507 7.54999C17.5282 8.4341 17.5781 9.41647 17.5889 10.3854C17.5889 10.3854 17.5519 10.662 17.356 10.7503C17.1175 10.8582 16.8145 10.7162 16.7975 10.3942C16.7814 8.93452 16.4874 7.46404 15.4121 6.14082C14.6377 5.18748 13.5717 4.49962 12.3702 4.16756C11.7794 4.00418 11.1233 3.98423 10.5161 3.94874C10.5161 3.94874 10.243 3.893 10.1682 3.69119C10.0807 3.45564 10.2213 3.17844 10.5296 3.1582L10.5621 3.15879Z" fill="#1C1F23"/>
<path fill-rule="evenodd" clip-rule="evenodd" d="M10.982 5.04205C10.982 5.04205 11.0627 5.05349 11.1199 5.06258C12.9183 5.35826 14.7968 6.2937 15.3773 8.15666C15.59 8.83954 15.6011 9.24757 15.6261 9.95802C15.5967 10.5145 14.8044 10.545 14.7443 10.005C14.7399 9.78437 14.7355 9.56349 14.7103 9.34437C14.6261 8.60898 14.5768 8.32327 14.2333 7.66181C13.7258 6.68559 12.5282 6.22477 11.4604 6.01327C11.2753 5.97671 11.089 5.94618 10.9019 5.92175C10.8268 5.88186 10.7506 5.84138 10.6866 5.78535C10.5834 5.69471 10.481 5.54834 10.5262 5.39669C10.5886 5.18783 10.755 5.03911 10.982 5.04205ZM6.67558 4.29639C7.05955 4.30314 7.38603 4.59735 7.67966 4.91269C8.34289 5.62519 8.85593 6.49698 9.17801 7.40954C9.18886 7.4421 9.19561 7.47554 9.19678 7.50957C9.20881 7.81053 8.92251 8.00119 8.73361 8.16253C8.39862 8.44853 8.01259 8.71458 8.04457 9.18949C8.09209 9.89319 8.61422 10.4758 9.04161 11.034C9.69339 11.8849 10.469 12.6875 11.5754 12.9978C11.9069 13.0908 12.287 13.1055 12.5408 12.882C12.9963 12.481 13.2395 11.7664 13.9297 11.941C14.6947 12.1346 15.3492 12.6969 15.9898 13.1809C16.4307 13.5138 16.9381 13.8954 16.9631 14.37C16.9857 14.8018 16.7123 15.2192 16.4113 15.5792C15.8924 16.2002 15.1388 16.7519 14.3891 16.6061C13.2976 16.394 12.2976 15.8047 11.3123 15.2125C9.84593 14.3313 8.45113 13.3085 7.35993 12.0075C6.40571 10.87 5.5923 9.60837 4.96398 8.25991C4.7211 7.73895 4.46737 7.20567 4.41369 6.63455C4.32745 5.71437 5.27374 4.76778 6.18395 4.40405C6.34001 4.34157 6.50574 4.29581 6.67558 4.29639Z" fill="#1C1F23"/>
<path fill-rule="evenodd" clip-rule="evenodd" d="M11.3889 7.02314C12.3056 7.09061 13.1492 7.42237 13.4868 8.20938C13.6719 8.64029 13.813 9.13104 13.7347 9.57778C13.6684 9.95706 12.95 10.0254 12.9506 9.44696C12.945 8.86498 12.7623 8.22082 12.2202 7.99642C11.7861 7.8169 11.1276 7.99232 10.9897 7.53208C10.9166 7.28744 11.0838 7.01464 11.3889 7.02314Z" fill="#1C1F23"/>
</g>
<defs>
<clipPath id="clip0_1615_254">
<rect width="22" height="24" fill="white"/>
</clipPath>
</defs>
</svg>
