<svg width="22" height="22" viewBox="0 0 22 22" fill="none" xmlns="http://www.w3.org/2000/svg">
<g clip-path="url(#clip0_1615_241)">
<path fill-rule="evenodd" clip-rule="evenodd" d="M11.1995 0C5.23932 0 0.399064 4.80372 0.399064 10.7189C0.399064 12.7375 0.965477 14.6411 1.94383 16.2509L0 22L5.97308 20.0964C7.51785 20.9396 9.29432 21.4251 11.1995 21.4251C17.1597 21.4251 22 16.6214 22 10.7062C22 4.80372 17.1597 0 11.1995 0ZM11.1995 19.7259C9.35869 19.7259 7.6337 19.1765 6.2048 18.2311L2.71621 19.3426L3.84903 15.9954C2.7677 14.5134 2.12405 12.6864 2.12405 10.7062C2.12405 5.74913 6.19193 1.71196 11.1995 1.71196C16.2071 1.71196 20.275 5.74913 20.275 10.7189C20.275 15.6887 16.2071 19.7259 11.1995 19.7259Z" fill="#1C1F23"/>
<path fill-rule="evenodd" clip-rule="evenodd" d="M8.66383 6.28561C8.48361 5.86401 8.35488 5.85124 8.08454 5.83846C7.99443 5.83846 7.89145 5.82568 7.77559 5.82568C7.42802 5.82568 7.06757 5.92789 6.84873 6.14508C6.5784 6.41337 5.92188 7.03939 5.92188 8.32975C5.92188 9.62011 6.87448 10.8721 7.00321 11.051C7.13194 11.2299 8.85692 13.9128 11.5216 15.0115C13.6071 15.8675 14.225 15.7908 14.7013 15.6886C15.3964 15.5353 16.2589 15.0371 16.4778 14.4238C16.6966 13.8106 16.6966 13.2868 16.6322 13.1718C16.5679 13.0568 16.3876 12.9929 16.1302 12.8652C15.8599 12.7374 14.5597 12.0986 14.3151 12.0092C14.0705 11.9198 13.8517 11.9453 13.6586 12.2008C13.4011 12.5586 13.1565 12.9163 12.9505 13.1335C12.7832 13.2996 12.5257 13.3251 12.3069 13.2357C12.0108 13.1079 11.1869 12.8268 10.1828 11.9325C9.41046 11.2554 8.88267 10.3867 8.72819 10.1311C8.57372 9.86285 8.71532 9.70954 8.83118 9.56901C8.97278 9.40292 9.08864 9.28794 9.23024 9.13463C9.35897 8.98132 9.43621 8.90466 9.52632 8.7258C9.61643 8.54694 9.55207 8.36808 9.4877 8.24032C9.41046 8.09978 8.88267 6.80942 8.66383 6.28561Z" fill="#1C1F23"/>
</g>
<defs>
<clipPath id="clip0_1615_241">
<rect width="22" height="22" fill="white"/>
</clipPath>
</defs>
</svg>
