<svg width="65" height="64" viewBox="0 0 65 64" fill="none" xmlns="http://www.w3.org/2000/svg">
<path d="M52.2248 34.2569L61.8074 43.8395L61.7644 43.8825C65.7295 48.7218 65.4535 55.8741 60.9363 60.3913C56.4191 64.9085 49.2667 65.1846 44.4274 61.2195L44.3844 61.2625L34.8018 51.6798C29.9906 46.8686 29.9906 39.0681 34.8018 34.2569C39.613 29.4456 47.4135 29.4456 52.2248 34.2569Z" fill="#FF3D00"/>
<g filter="url(#filter0_biiii_1460_7224)">
<path d="M60.8749 30.4374C60.8749 47.2476 47.2476 60.8749 30.4374 60.8749C13.6273 60.8749 0 47.2476 0 30.4374C0 13.6273 13.6273 0 30.4374 0C47.2476 0 60.8749 13.6273 60.8749 30.4374Z" fill="url(#paint0_linear_1460_7224)"/>
</g>
<path d="M51.6998 40.6472L56.9491 45.8964C56.9622 45.9093 56.9753 45.9224 56.9884 45.9354C57.0015 45.9485 57.0145 45.9616 57.0275 45.9748L57.5217 46.469L57.4955 46.4952C59.9243 49.4594 59.7553 53.8404 56.9884 56.6073C54.2215 59.3742 49.8405 59.5432 46.8764 57.1144L46.8499 57.1409L29.1523 39.4433L39.8242 28.7715L51.605 40.5523C51.6209 40.568 51.6368 40.5837 51.6526 40.5995C51.6685 40.6154 51.6842 40.6312 51.6998 40.6472Z" fill="url(#paint1_linear_1460_7224)"/>
<defs>
<filter id="filter0_biiii_1460_7224" x="-21" y="-21" width="102.875" height="102.875" filterUnits="userSpaceOnUse" color-interpolation-filters="sRGB">
<feFlood flood-opacity="0" result="BackgroundImageFix"/>
<feGaussianBlur in="BackgroundImageFix" stdDeviation="10.5"/>
<feComposite in2="SourceAlpha" operator="in" result="effect1_backgroundBlur_1460_7224"/>
<feBlend mode="normal" in="SourceGraphic" in2="effect1_backgroundBlur_1460_7224" result="shape"/>
<feColorMatrix in="SourceAlpha" type="matrix" values="0 0 0 0 0 0 0 0 0 0 0 0 0 0 0 0 0 0 127 0" result="hardAlpha"/>
<feOffset dx="10" dy="10"/>
<feGaussianBlur stdDeviation="11.5"/>
<feComposite in2="hardAlpha" operator="arithmetic" k2="-1" k3="1"/>
<feColorMatrix type="matrix" values="0 0 0 0 0.79388 0 0 0 0 0.77526 0 0 0 0 0.8125 0 0 0 0.18 0"/>
<feBlend mode="normal" in2="shape" result="effect2_innerShadow_1460_7224"/>
<feColorMatrix in="SourceAlpha" type="matrix" values="0 0 0 0 0 0 0 0 0 0 0 0 0 0 0 0 0 0 127 0" result="hardAlpha"/>
<feMorphology radius="2" operator="erode" in="SourceAlpha" result="effect3_innerShadow_1460_7224"/>
<feOffset dy="2"/>
<feGaussianBlur stdDeviation="3"/>
<feComposite in2="hardAlpha" operator="arithmetic" k2="-1" k3="1"/>
<feColorMatrix type="matrix" values="0 0 0 0 1 0 0 0 0 1 0 0 0 0 1 0 0 0 0.05 0"/>
<feBlend mode="normal" in2="effect2_innerShadow_1460_7224" result="effect3_innerShadow_1460_7224"/>
<feColorMatrix in="SourceAlpha" type="matrix" values="0 0 0 0 0 0 0 0 0 0 0 0 0 0 0 0 0 0 127 0" result="hardAlpha"/>
<feOffset dy="1"/>
<feComposite in2="hardAlpha" operator="arithmetic" k2="-1" k3="1"/>
<feColorMatrix type="matrix" values="0 0 0 0 1 0 0 0 0 1 0 0 0 0 1 0 0 0 0.05 0"/>
<feBlend mode="normal" in2="effect3_innerShadow_1460_7224" result="effect4_innerShadow_1460_7224"/>
<feColorMatrix in="SourceAlpha" type="matrix" values="0 0 0 0 0 0 0 0 0 0 0 0 0 0 0 0 0 0 127 0" result="hardAlpha"/>
<feOffset dy="-10"/>
<feGaussianBlur stdDeviation="5"/>
<feComposite in2="hardAlpha" operator="arithmetic" k2="-1" k3="1"/>
<feColorMatrix type="matrix" values="0 0 0 0 1 0 0 0 0 0.239216 0 0 0 0 0 0 0 0 1 0"/>
<feBlend mode="overlay" in2="effect4_innerShadow_1460_7224" result="effect5_innerShadow_1460_7224"/>
</filter>
<linearGradient id="paint0_linear_1460_7224" x1="30.4374" y1="120.499" x2="-9.66905" y2="14.1914" gradientUnits="userSpaceOnUse">
<stop stop-color="#D6D6D6" stop-opacity="0.01"/>
<stop offset="1" stop-color="#BFB7C8" stop-opacity="0.12"/>
</linearGradient>
<linearGradient id="paint1_linear_1460_7224" x1="66.4747" y1="67.2147" x2="35.1934" y2="34.8849" gradientUnits="userSpaceOnUse">
<stop stop-color="white"/>
<stop offset="1" stop-color="white" stop-opacity="0"/>
</linearGradient>
</defs>
</svg>
